# xmcd
#
# Track frame offsets:
#	150
#	15064
#	32359
#	47809
#	65592
#	89684
#	108737
#	129984
#	146532
#	163324
#	183327
#	204494
#
# Disc length: 3120 seconds
#
# Revision: 0
# Processed by: cddbd v1.5.2PL0 Copyright (c) Steve Scherf et al.
# Submitted via: dBpowerAMP V4.0
#
DISCID=a10c2e0c
DTITLE=Kragens - Dying In A Desert
DYEAR=2003
DGENRE=Heavy Metal
TTITLE0=Dying in a desert
TTITLE1=Carnivore ritual
TTITLE2=Kragens
TTITLE3=Fear
TTITLE4=Lords of chaos
TTITLE5=Metal hunter
TTITLE6=Satan the killer
TTITLE7=Nightmare
TTITLE8=Road warrior
TTITLE9=World made of heroes
TTITLE10=Rise up your fist to fight
TTITLE11=Destroyin the temple
EXTD=
EXTT0=
EXTT1=
EXTT2=
EXTT3=
EXTT4=
EXTT5=
EXTT6=
EXTT7=
EXTT8=
EXTT9=
EXTT10=
EXTT11=
PLAYORDER=
